<svg width="320" height="50" viewBox="0 0 320 50" fill="none" xmlns="http://www.w3.org/2000/svg">
<path d="M60.4148 47.2628C58.5279 45.4544 57.5845 42.66 57.5845 38.8797C57.5845 35.0891 58.5279 32.2896 60.4148 30.4812C62.3119 28.6626 65.1524 27.7532 68.9364 27.7532H72.3481C74.6634 27.7532 76.7084 28.356 78.4831 29.5617C80.268 30.7673 81.1604 32.4173 81.1604 34.5119C81.1604 35.1147 80.9819 35.5489 80.6249 35.8145C80.268 36.07 79.9212 36.1977 79.5846 36.1977H77.764C76.8257 36.1977 76.0964 35.6357 75.5762 34.5119C74.8215 32.8976 73.5669 32.0904 71.8127 32.0904H69.0894C66.8557 32.0904 65.3411 32.5706 64.5456 33.531C63.75 34.4914 63.3522 36.2692 63.3522 38.8643C63.3522 41.4595 63.75 43.2424 64.5456 44.213C65.3411 45.1734 66.8557 45.6536 69.0894 45.6536H72.1339C73.8882 45.6536 75.1377 44.8465 75.8822 43.2322C76.4024 42.0981 77.1367 41.531 78.0853 41.531H79.9059C80.3853 41.531 80.7626 41.7098 81.038 42.0674C81.3236 42.425 81.4664 42.8133 81.4664 43.2322C81.4664 45.3267 80.579 46.9767 78.8043 48.1824C77.0296 49.3778 74.9847 49.9755 72.6694 49.9755H68.9364C65.1524 49.9755 62.3119 49.0712 60.4148 47.2628Z" fill="#272727"/>
<path d="M83.8977 48.4429L87.7378 33.8529C88.7781 29.8784 92.1643 27.8861 97.8964 27.8758H106.143C106.52 27.8758 106.831 28.0189 107.076 28.305C107.331 28.591 107.458 28.9231 107.458 29.3011V48.4429C107.458 48.8414 107.316 49.1785 107.03 49.4544C106.744 49.72 106.403 49.8529 106.005 49.8529H103.129C102.711 49.8529 102.364 49.72 102.088 49.4544C101.823 49.1785 101.691 48.8311 101.691 48.4122V44.5502H90.8129L89.7879 48.4122C89.6859 48.8311 89.4564 49.1785 89.0994 49.4544C88.7424 49.72 88.3651 49.8529 87.9673 49.8529H84.9534C84.5556 49.8529 84.27 49.7405 84.0966 49.5157C83.9232 49.2807 83.8365 49.0764 83.8365 48.9027C83.8467 48.729 83.8671 48.5757 83.8977 48.4429ZM91.9451 40.213H101.691V32.213H97.3304C96.3512 32.213 95.4945 32.494 94.7601 33.0559C94.0359 33.6076 93.5464 34.3535 93.2914 35.2935L91.9451 40.213Z" fill="#272727"/>
<path d="M113.087 48.4122V29.3318C113.087 28.9333 113.23 28.591 113.516 28.305C113.801 28.0189 114.153 27.8758 114.571 27.8758H117.417C117.815 27.8758 118.151 28.0189 118.427 28.305C118.712 28.591 118.855 28.9333 118.855 29.3318V36.2283H129.381V29.3318C129.381 28.9333 129.524 28.591 129.809 28.305C130.095 28.0189 130.436 27.8758 130.834 27.8758H133.68C134.098 27.8758 134.445 28.0189 134.72 28.305C135.006 28.591 135.149 28.9333 135.149 29.3318V48.4122C135.149 48.8107 135.001 49.153 134.705 49.4391C134.419 49.7149 134.078 49.8529 133.68 49.8529H130.834C130.436 49.8529 130.095 49.72 129.809 49.4544C129.524 49.1785 129.381 48.8414 129.381 48.4429V40.5655H118.855V48.4429C118.855 48.8414 118.712 49.1785 118.427 49.4544C118.151 49.72 117.815 49.8529 117.417 49.8529H114.571C114.173 49.8529 113.827 49.7149 113.531 49.4391C113.235 49.153 113.087 48.8107 113.087 48.4122Z" fill="#272727"/>
<path d="M138.926 30.7724V29.3318C138.926 28.9129 139.064 28.5655 139.339 28.2896C139.615 28.0138 139.961 27.8758 140.38 27.8758H159.794C160.212 27.8758 160.559 28.0138 160.835 28.2896C161.11 28.5655 161.248 28.9129 161.248 29.3318V30.7724C161.248 31.1913 161.11 31.5387 160.835 31.8145C160.559 32.0802 160.212 32.213 159.794 32.213H152.971V48.4429C152.971 48.8414 152.828 49.1785 152.542 49.4544C152.267 49.72 151.93 49.8529 151.533 49.8529H148.641C148.243 49.8529 147.902 49.72 147.616 49.4544C147.341 49.1785 147.203 48.8414 147.203 48.4429V32.213H140.38C139.961 32.213 139.615 32.0802 139.339 31.8145C139.064 31.5387 138.926 31.1913 138.926 30.7724Z" fill="#272727"/>
<path d="M165.01 48.3816V29.3011C165.01 28.9027 165.153 28.5655 165.438 28.2896C165.724 28.0138 166.066 27.8758 166.463 27.8758H184.103C184.501 27.8758 184.838 28.0189 185.113 28.305C185.399 28.591 185.541 28.9333 185.541 29.3318V30.7724C185.541 31.1709 185.399 31.5131 185.113 31.7992C184.838 32.0751 184.501 32.213 184.103 32.213H170.778V36.6728H182.252C182.65 36.6728 182.986 36.8158 183.262 37.1019C183.547 37.3778 183.69 37.7149 183.69 38.1134V39.554C183.69 39.9525 183.547 40.2947 183.262 40.5808C182.986 40.8567 182.65 40.9946 182.252 40.9946H170.778V45.5157H184.073C184.46 45.5157 184.792 45.6536 185.067 45.9295C185.342 46.2053 185.48 46.5425 185.48 46.941V48.4122C185.48 48.8107 185.337 49.153 185.052 49.4391C184.766 49.7149 184.425 49.8529 184.027 49.8529H166.463C166.066 49.8529 165.724 49.7149 165.438 49.4391C165.153 49.153 165.01 48.8005 165.01 48.3816Z" fill="#272727"/>
<path d="M189.694 49.8529C189.184 49.8529 188.898 49.623 188.837 49.1632C188.837 48.9384 188.944 48.6881 189.158 48.4122L196.869 38.5578L189.602 29.3318C189.388 29.0661 189.281 28.8158 189.281 28.5808C189.281 28.1108 189.561 27.8758 190.122 27.8758H193.412C194.432 27.8758 195.324 28.3612 196.089 29.3318L200.281 34.6651L204.473 29.3318C205.228 28.3714 206.12 27.8861 207.15 27.8758H210.439C211 27.8758 211.281 28.1108 211.281 28.5808C211.281 28.8056 211.174 29.0559 210.96 29.3318L203.693 38.5578L211.403 48.4122C211.617 48.6779 211.725 48.8924 211.725 49.0559C211.725 49.2194 211.704 49.3369 211.663 49.4084C211.551 49.7047 211.286 49.8529 210.868 49.8529H207.609C206.589 49.8529 205.702 49.3727 204.947 48.4122L200.281 42.4506L195.615 48.4122C194.86 49.3727 193.973 49.8529 192.953 49.8529H189.694Z" fill="#272727"/>
<path d="M215.472 48.4122V29.3318C215.472 28.9333 215.614 28.591 215.9 28.305C216.186 28.0189 216.537 27.8758 216.956 27.8758H219.801C220.199 27.8758 220.536 28.0189 220.811 28.305C221.097 28.591 221.239 28.9333 221.239 29.3318V36.2283H231.765V29.3318C231.765 28.9333 231.908 28.591 232.194 28.305C232.479 28.0189 232.821 27.8758 233.219 27.8758H236.064C236.482 27.8758 236.829 28.0189 237.105 28.305C237.39 28.591 237.533 28.9333 237.533 29.3318V48.4122C237.533 48.8107 237.385 49.153 237.089 49.4391C236.804 49.7149 236.462 49.8529 236.064 49.8529H233.219C232.821 49.8529 232.479 49.72 232.194 49.4544C231.908 49.1785 231.765 48.8414 231.765 48.4429V40.5655H221.239V48.4429C221.239 48.8414 221.097 49.1785 220.811 49.4544C220.536 49.72 220.199 49.8529 219.801 49.8529H216.956C216.558 49.8529 216.211 49.7149 215.915 49.4391C215.62 49.153 215.472 48.8107 215.472 48.4122Z" fill="#272727"/>
<path d="M243.192 48.4122V29.3318C243.192 28.9129 243.33 28.5655 243.605 28.2896C243.881 28.0138 244.228 27.8758 244.646 27.8758H247.338C247.736 27.8758 248.073 28.0138 248.348 28.2896C248.634 28.5655 248.777 28.9027 248.777 29.3011V44.6421L257.482 29.3318C257.716 28.9333 258.038 28.591 258.446 28.305C258.854 28.0189 259.231 27.8758 259.578 27.8758H264.091C264.489 27.8758 264.825 28.0189 265.101 28.305C265.376 28.591 265.514 28.9333 265.514 29.3318V48.4122C265.514 48.8107 265.371 49.153 265.085 49.4391C264.8 49.7149 264.458 49.8529 264.06 49.8529H261.368C260.97 49.8529 260.628 49.7149 260.343 49.4391C260.067 49.153 259.93 48.8107 259.93 48.4122V34.19L251.944 48.4122C251.709 48.8107 251.377 49.153 250.949 49.4391C250.521 49.7149 250.108 49.8529 249.71 49.8529H244.646C244.248 49.8529 243.906 49.7149 243.621 49.4391C243.335 49.153 243.192 48.8107 243.192 48.4122Z" fill="#272727"/>
<path d="M293.862 49.1785C293.862 49.6281 293.597 49.8529 293.066 49.8529H289.563C289.165 49.8529 288.737 49.7149 288.278 49.4391C287.819 49.153 287.462 48.8107 287.207 48.4122L284.514 44.1364C283.872 43.0942 283.224 42.3126 282.571 41.7916C281.918 41.2603 281.133 40.9946 280.215 40.9946H276.926V48.4429C276.926 48.8414 276.783 49.1785 276.497 49.4544C276.222 49.72 275.885 49.8529 275.488 49.8529H272.611C272.214 49.8529 271.872 49.7098 271.586 49.4237C271.301 49.1274 271.158 48.7801 271.158 48.3816V29.3318C271.158 28.9333 271.301 28.5859 271.586 28.2896C271.872 27.9933 272.214 27.8452 272.611 27.8452H275.488C275.885 27.8452 276.222 27.9933 276.497 28.2896C276.783 28.5859 276.926 28.9333 276.926 29.3318V36.6728H280.215C281.113 36.6728 281.898 36.4276 282.571 35.9371C283.255 35.4467 283.902 34.6549 284.514 33.5617L286.885 29.3318C287.426 28.3509 288.16 27.8554 289.089 27.8452H292.623C293.112 27.8452 293.357 28.0597 293.357 28.4889C293.357 28.7239 293.27 29.0048 293.097 29.3318L289.777 35.3548C289.298 36.2334 288.757 36.9589 288.155 37.531C286.092 39.5267 285.76 37.8749 287.895 40.0138C288.609 40.7188 289.236 41.485 289.777 42.3126L293.602 48.4122C293.775 48.7085 293.862 48.964 293.862 49.1785Z" fill="#272727"/>
<path d="M297.318 48.4122V29.3318C297.318 28.9129 297.456 28.5655 297.731 28.2896C298.007 28.0138 298.353 27.8758 298.772 27.8758H301.464C301.862 27.8758 302.199 28.0138 302.474 28.2896C302.76 28.5655 302.902 28.9027 302.902 29.3011V44.6421L311.608 29.3318C311.842 28.9333 312.163 28.591 312.571 28.305C312.979 28.0189 313.357 27.8758 313.704 27.8758H318.217C318.615 27.8758 318.951 28.0189 319.227 28.305C319.502 28.591 319.64 28.9333 319.64 29.3318V48.4122C319.64 48.8107 319.497 49.153 319.211 49.4391C318.926 49.7149 318.584 49.8529 318.186 49.8529H315.494C315.096 49.8529 314.754 49.7149 314.469 49.4391C314.193 49.153 314.055 48.8107 314.055 48.4122V34.19L306.069 48.4122C305.835 48.8107 305.503 49.153 305.075 49.4391C304.647 49.7149 304.233 49.8529 303.836 49.8529H298.772C298.374 49.8529 298.032 49.7149 297.747 49.4391C297.461 49.153 297.318 48.8107 297.318 48.4122Z" fill="#272727"/>
<path d="M57.5845 21.2965V1.9722C57.5845 1.56928 57.7289 1.22836 58.0176 0.949416C58.3064 0.670476 58.6519 0.531006 59.0541 0.531006H61.9624C62.3646 0.531006 62.705 0.675641 62.9834 0.964913C63.2722 1.25418 63.4166 1.60028 63.4166 2.00319V18.3677H73.8123V1.9722C73.8123 1.56928 73.9515 1.22836 74.23 0.949416C74.5188 0.670476 74.8643 0.531006 75.2665 0.531006H78.1903C78.5822 0.531006 78.9225 0.675641 79.2113 0.964913C79.5 1.25418 79.6444 1.60028 79.6444 2.00319V18.3677H81.3152C81.7174 18.3677 82.0629 18.5123 82.3516 18.8016C82.6404 19.0909 82.7848 19.4369 82.7848 19.8399V21.2965C82.7848 21.6995 82.6404 22.0456 82.3516 22.3348C82.0629 22.6138 81.7174 22.7532 81.3152 22.7532H59.0541C58.6519 22.7532 58.3064 22.6138 58.0176 22.3348C57.7289 22.0456 57.5845 21.6995 57.5845 21.2965Z" fill="#3300D9"/>
<path d="M86.2643 21.2656V1.9722C86.2643 1.56928 86.4087 1.22836 86.6974 0.949416C86.9862 0.670476 87.3317 0.531006 87.7339 0.531006H105.571C105.973 0.531006 106.313 0.675641 106.592 0.964913C106.88 1.25418 107.025 1.60028 107.025 2.00319V3.45988C107.025 3.86279 106.88 4.20888 106.592 4.49815C106.313 4.77709 105.973 4.91656 105.571 4.91656H92.0964V9.4261H103.699C104.101 9.4261 104.441 9.57073 104.72 9.86C105.009 10.1389 105.153 10.4799 105.153 10.8828V12.3395C105.153 12.7424 105.009 13.0885 104.72 13.3777C104.441 13.6567 104.101 13.7962 103.699 13.7962H92.0964V18.3677H105.54C105.932 18.3677 106.267 18.5071 106.545 18.7861C106.824 19.065 106.963 19.406 106.963 19.8089V21.2965C106.963 21.6995 106.818 22.0456 106.53 22.3348C106.241 22.6138 105.895 22.7532 105.493 22.7532H87.7339C87.3317 22.7532 86.9862 22.6138 86.6974 22.3348C86.4087 22.0456 86.2643 21.6891 86.2643 21.2656Z" fill="#3300D9"/>
<path d="M111.693 21.2965V2.00319C111.693 1.60028 111.837 1.25418 112.126 0.964913C112.415 0.675641 112.771 0.531006 113.194 0.531006H116.071C116.473 0.531006 116.814 0.675641 117.092 0.964913C117.381 1.25418 117.525 1.60028 117.525 2.00319V8.97669H128.168V2.00319C128.168 1.60028 128.313 1.25418 128.602 0.964913C128.89 0.675641 129.236 0.531006 129.638 0.531006H132.515C132.938 0.531006 133.289 0.675641 133.567 0.964913C133.856 1.25418 134.001 1.60028 134.001 2.00319V21.2965C134.001 21.6995 133.851 22.0456 133.552 22.3348C133.263 22.6138 132.918 22.7532 132.515 22.7532H129.638C129.236 22.7532 128.89 22.6189 128.602 22.3503C128.313 22.0714 128.168 21.7305 128.168 21.3275V13.3622H117.525V21.3275C117.525 21.7305 117.381 22.0714 117.092 22.3503C116.814 22.6189 116.473 22.7532 116.071 22.7532H113.194C112.791 22.7532 112.441 22.6138 112.142 22.3348C111.843 22.0456 111.693 21.6995 111.693 21.2965Z" fill="#3300D9"/>
<path d="M137.266 3.45988V2.00319C137.266 1.57961 137.405 1.22836 137.683 0.949416C137.962 0.670476 138.313 0.531006 138.735 0.531006H158.367C158.789 0.531006 159.14 0.670476 159.419 0.949416C159.697 1.22836 159.836 1.57961 159.836 2.00319V3.45988C159.836 3.88345 159.697 4.23471 159.419 4.51365C159.14 4.78226 158.789 4.91656 158.367 4.91656H151.467V21.3275C151.467 21.7305 151.323 22.0714 151.034 22.3503C150.755 22.6189 150.415 22.7532 150.013 22.7532H147.089C146.687 22.7532 146.341 22.6189 146.053 22.3503C145.774 22.0714 145.635 21.7305 145.635 21.3275V4.91656H138.735C138.313 4.91656 137.962 4.78226 137.683 4.51365C137.405 4.23471 137.266 3.88345 137.266 3.45988Z" fill="#3300D9"/>
<path d="M163.641 21.2965V2.00319C163.641 1.60028 163.78 1.25418 164.058 0.964913C164.337 0.675641 164.677 0.531006 165.079 0.531006H176.883C183.122 0.531006 186.242 3.41339 186.242 9.17815C186.242 14.9326 183.122 17.8098 176.883 17.8098H169.473V21.2965C169.473 21.6995 169.328 22.0456 169.04 22.3348C168.761 22.6138 168.421 22.7532 168.019 22.7532H165.11C164.708 22.7532 164.363 22.6138 164.074 22.3348C163.785 22.0456 163.641 21.6995 163.641 21.2965ZM169.473 13.4242H175.119C176.852 13.4242 178.167 13.135 179.064 12.5564C179.961 11.9675 180.41 10.8415 180.41 9.17815C180.41 7.50451 179.961 6.37842 179.064 5.79987C178.167 5.211 176.852 4.91656 175.119 4.91656H169.473V13.4242Z" fill="#3300D9"/>
<path d="M48.1977 25C49.1166 25 49.8673 24.2529 49.806 23.3345C49.5376 19.3062 48.2983 15.394 46.1839 11.9375C43.779 8.00639 40.3358 4.81799 36.2349 2.72484C32.134 0.631697 27.5351 -0.284663 22.9468 0.0770767C18.9125 0.395133 15.0245 1.69035 11.6134 3.84056C10.8356 4.33079 10.6735 5.37826 11.2137 6.12294L12.485 7.8758C13.0251 8.62048 14.0623 8.77878 14.8491 8.30328C17.4338 6.74116 20.353 5.79857 23.3776 5.56012C26.9565 5.27796 30.5436 5.99272 33.7423 7.62537C36.941 9.25803 39.6267 11.745 41.5025 14.8113C43.0877 17.4026 44.0423 20.3224 44.3 23.3353C44.3784 24.2524 45.1159 25 46.0348 25H48.1977Z" fill="url(#paint0_linear_279_11411)"/>
<path d="M38.3653 25.094C39.2842 25.094 40.038 24.3458 39.9432 23.4303C39.6957 21.0393 38.9171 18.7266 37.656 16.6651C36.1042 14.1284 33.8824 12.071 31.2362 10.7204C28.59 9.36972 25.6224 8.77842 22.6617 9.01184C20.2555 9.20153 17.93 9.9299 15.8536 11.1347C15.0585 11.5961 14.8973 12.6467 15.4374 13.3914L16.6999 15.132C17.24 15.8767 18.2763 16.0283 19.0948 15.61C20.335 14.9762 21.6925 14.59 23.0912 14.4798C25.0453 14.3257 27.0039 14.716 28.7504 15.6074C30.4969 16.4988 31.9633 17.8567 32.9875 19.5309C33.7206 20.7293 34.2067 22.0564 34.4238 23.4341C34.567 24.3433 35.2986 25.094 36.2175 25.094H38.3653Z" fill="url(#paint1_linear_279_11411)"/>
<path d="M1.61184 24.9997C0.692958 24.9997 -0.0577162 25.7467 0.00349668 26.6652C0.228084 30.0349 1.1324 33.3301 2.66817 36.3494C4.20393 39.3688 6.33368 42.0386 8.92307 44.2012C9.62883 44.7907 10.6734 44.6214 11.2135 43.8767L12.4848 42.1239C13.0249 41.3792 12.8547 40.3421 12.1601 39.7395C10.2661 38.0961 8.7025 36.0983 7.5602 33.8525C6.41791 31.6067 5.72348 29.1653 5.50958 26.6644C5.43113 25.7473 4.69362 24.9997 3.77474 24.9997H1.61184Z" fill="url(#paint2_linear_279_11411)"/>
<path d="M12.9077 45.0005C12.4344 45.7895 12.6872 46.8189 13.5046 47.2394C18.8642 49.9965 25.0596 50.7265 30.9419 49.2573C36.8243 47.7881 41.9524 44.23 45.3925 39.275C45.9172 38.5194 45.6579 37.4916 44.8703 37.0175L43.0163 35.9016C42.2287 35.4275 41.2121 35.6879 40.6733 36.4336C37.9936 40.1425 34.0827 42.8045 29.6137 43.9207C25.1446 45.0369 20.444 44.5257 16.3397 42.5111C15.5145 42.1061 14.4949 42.3543 14.0217 43.1433L12.9077 45.0005Z" fill="url(#paint3_linear_279_11411)"/>
<path d="M11.4443 24.906C10.5254 24.906 9.77165 25.6541 9.86641 26.5697C10.0702 28.5384 10.6345 30.4577 11.5358 32.2297C12.4371 34.0017 13.6554 35.5871 15.1256 36.9094C15.8094 37.5244 16.8567 37.3533 17.3968 36.6086L18.6592 34.868C19.1993 34.1233 19.0231 33.0892 18.373 32.4386C17.585 31.6501 16.9231 30.7399 16.4143 29.7396C15.9055 28.7394 15.5595 27.668 15.3858 26.5659C15.2426 25.6566 14.511 24.906 13.5921 24.906H11.4443Z" fill="url(#paint4_linear_279_11411)"/>
<path d="M18.447 37.3051C17.9738 38.0941 18.2258 39.1267 19.058 39.5169C22.3913 41.0798 26.1767 41.4587 29.7801 40.5587C33.3836 39.6587 36.5483 37.5439 38.759 34.5964C39.3109 33.8605 39.0495 32.8302 38.2619 32.3561L36.4209 31.248C35.6332 30.7739 34.6202 31.04 34.0299 31.7454C32.5959 33.4592 30.6488 34.6889 28.4555 35.2367C26.2622 35.7845 23.9668 35.6145 21.8974 34.7756C21.0456 34.4304 20.0265 34.6719 19.5532 35.4609L18.447 37.3051Z" fill="url(#paint5_linear_279_11411)"/>
<defs>
<linearGradient id="paint0_linear_279_11411" x1="24.9048" y1="0" x2="24.9048" y2="50" gradientUnits="userSpaceOnUse">
<stop stop-color="#3300D9"/>
<stop offset="1" stop-color="#0071D9"/>
</linearGradient>
<linearGradient id="paint1_linear_279_11411" x1="24.9048" y1="0" x2="24.9048" y2="50" gradientUnits="userSpaceOnUse">
<stop stop-color="#3300D9"/>
<stop offset="1" stop-color="#0071D9"/>
</linearGradient>
<linearGradient id="paint2_linear_279_11411" x1="24.9048" y1="0" x2="24.9048" y2="50" gradientUnits="userSpaceOnUse">
<stop stop-color="#3300D9"/>
<stop offset="1" stop-color="#0071D9"/>
</linearGradient>
<linearGradient id="paint3_linear_279_11411" x1="24.9048" y1="0" x2="24.9048" y2="50" gradientUnits="userSpaceOnUse">
<stop stop-color="#3300D9"/>
<stop offset="1" stop-color="#0071D9"/>
</linearGradient>
<linearGradient id="paint4_linear_279_11411" x1="24.9048" y1="0" x2="24.9048" y2="50" gradientUnits="userSpaceOnUse">
<stop stop-color="#3300D9"/>
<stop offset="1" stop-color="#0071D9"/>
</linearGradient>
<linearGradient id="paint5_linear_279_11411" x1="24.9048" y1="0" x2="24.9048" y2="50" gradientUnits="userSpaceOnUse">
<stop stop-color="#3300D9"/>
<stop offset="1" stop-color="#0071D9"/>
</linearGradient>
</defs>
</svg>
