<svg width="300" height="300" viewBox="0 0 300 300" fill="none" xmlns="http://www.w3.org/2000/svg">
<g clip-path="url(#clip0_279_11449)">
<g clip-path="url(#clip1_279_11449)">
<path d="M300 0H0V300H300V0Z" fill="white"/>
<path d="M102.9 25.95H94.3501V34.5H102.9V25.95Z" fill="black"/>
<path d="M111.45 25.95H102.9V34.5H111.45V25.95Z" fill="black"/>
<path d="M162.75 25.95H154.2V34.5H162.75V25.95Z" fill="black"/>
<path d="M171.3 25.95H162.75V34.5H171.3V25.95Z" fill="black"/>
<path d="M188.4 25.95H179.85V34.5H188.4V25.95Z" fill="black"/>
<path d="M154.2 34.5H145.65V43.05H154.2V34.5Z" fill="black"/>
<path d="M188.4 34.5H179.85V43.05H188.4V34.5Z" fill="black"/>
<path d="M102.9 43.05H94.3501V51.6H102.9V43.05Z" fill="black"/>
<path d="M128.55 43.05H120V51.6H128.55V43.05Z" fill="black"/>
<path d="M137.1 43.05H128.55V51.6H137.1V43.05Z" fill="black"/>
<path d="M145.65 43.05H137.1V51.6H145.65V43.05Z" fill="black"/>
<path d="M188.4 43.05H179.85V51.6H188.4V43.05Z" fill="black"/>
<path d="M205.5 43.05H196.95V51.6H205.5V43.05Z" fill="black"/>
<path d="M102.9 51.6H94.3501V60.15H102.9V51.6Z" fill="black"/>
<path d="M111.45 51.6H102.9V60.15H111.45V51.6Z" fill="black"/>
<path d="M128.55 51.6H120V60.15H128.55V51.6Z" fill="black"/>
<path d="M162.75 51.6H154.2V60.15H162.75V51.6Z" fill="black"/>
<path d="M171.3 51.6H162.75V60.15H171.3V51.6Z" fill="black"/>
<path d="M179.85 51.6H171.3V60.15H179.85V51.6Z" fill="black"/>
<path d="M188.4 51.6H179.85V60.15H188.4V51.6Z" fill="black"/>
<path d="M205.5 51.6H196.95V60.15H205.5V51.6Z" fill="black"/>
<path d="M102.9 60.15H94.3501V68.7H102.9V60.15Z" fill="black"/>
<path d="M111.45 60.15H102.9V68.7H111.45V60.15Z" fill="black"/>
<path d="M120 60.15H111.45V68.7H120V60.15Z" fill="black"/>
<path d="M128.55 60.15H120V68.7H128.55V60.15Z" fill="black"/>
<path d="M145.65 60.15H137.1V68.7H145.65V60.15Z" fill="black"/>
<path d="M154.2 60.15H145.65V68.7H154.2V60.15Z" fill="black"/>
<path d="M162.75 60.15H154.2V68.7H162.75V60.15Z" fill="black"/>
<path d="M179.85 60.15H171.3V68.7H179.85V60.15Z" fill="black"/>
<path d="M188.4 60.15H179.85V68.7H188.4V60.15Z" fill="black"/>
<path d="M205.5 60.15H196.95V68.7H205.5V60.15Z" fill="black"/>
<path d="M111.45 68.7H102.9V77.25H111.45V68.7Z" fill="black"/>
<path d="M137.1 68.7H128.55V77.25H137.1V68.7Z" fill="black"/>
<path d="M154.2 68.7H145.65V77.25H154.2V68.7Z" fill="black"/>
<path d="M171.3 68.7H162.75V77.25H171.3V68.7Z" fill="black"/>
<path d="M179.85 68.7H171.3V77.25H179.85V68.7Z" fill="black"/>
<path d="M196.95 68.7H188.4V77.25H196.95V68.7Z" fill="black"/>
<path d="M102.9 77.25H94.3501V85.8H102.9V77.25Z" fill="black"/>
<path d="M120 77.25H111.45V85.8H120V77.25Z" fill="black"/>
<path d="M137.1 77.25H128.55V85.8H137.1V77.25Z" fill="black"/>
<path d="M154.2 77.25H145.65V85.8H154.2V77.25Z" fill="black"/>
<path d="M171.3 77.25H162.75V85.8H171.3V77.25Z" fill="black"/>
<path d="M188.4 77.25H179.85V85.8H188.4V77.25Z" fill="black"/>
<path d="M205.5 77.25H196.95V85.8H205.5V77.25Z" fill="black"/>
<path d="M111.45 85.8H102.9V94.35H111.45V85.8Z" fill="black"/>
<path d="M128.55 85.8H120V94.35H128.55V85.8Z" fill="black"/>
<path d="M145.65 85.8H137.1V94.35H145.65V85.8Z" fill="black"/>
<path d="M154.2 85.8H145.65V94.35H154.2V85.8Z" fill="black"/>
<path d="M171.3 85.8H162.75V94.35H171.3V85.8Z" fill="black"/>
<path d="M196.95 85.8H188.4V94.35H196.95V85.8Z" fill="black"/>
<path d="M34.5002 94.35H25.9502V102.9H34.5002V94.35Z" fill="black"/>
<path d="M43.05 94.35H34.5V102.9H43.05V94.35Z" fill="black"/>
<path d="M51.5998 94.35H43.0498V102.9H51.5998V94.35Z" fill="black"/>
<path d="M60.1501 94.35H51.6001V102.9H60.1501V94.35Z" fill="black"/>
<path d="M85.8 94.35H77.25V102.9H85.8V94.35Z" fill="black"/>
<path d="M102.9 94.35H94.3501V102.9H102.9V94.35Z" fill="black"/>
<path d="M145.65 94.35H137.1V102.9H145.65V94.35Z" fill="black"/>
<path d="M154.2 94.35H145.65V102.9H154.2V94.35Z" fill="black"/>
<path d="M171.3 94.35H162.75V102.9H171.3V94.35Z" fill="black"/>
<path d="M179.85 94.35H171.3V102.9H179.85V94.35Z" fill="black"/>
<path d="M188.4 94.35H179.85V102.9H188.4V94.35Z" fill="black"/>
<path d="M196.95 94.35H188.4V102.9H196.95V94.35Z" fill="black"/>
<path d="M205.5 94.35H196.95V102.9H205.5V94.35Z" fill="black"/>
<path d="M214.05 94.35H205.5V102.9H214.05V94.35Z" fill="black"/>
<path d="M239.7 94.35H231.15V102.9H239.7V94.35Z" fill="black"/>
<path d="M248.25 94.35H239.7V102.9H248.25V94.35Z" fill="black"/>
<path d="M256.8 94.35H248.25V102.9H256.8V94.35Z" fill="black"/>
<path d="M273.9 94.35H265.35V102.9H273.9V94.35Z" fill="black"/>
<path d="M34.5002 102.9H25.9502V111.45H34.5002V102.9Z" fill="black"/>
<path d="M51.5998 102.9H43.0498V111.45H51.5998V102.9Z" fill="black"/>
<path d="M77.2502 102.9H68.7002V111.45H77.2502V102.9Z" fill="black"/>
<path d="M102.9 102.9H94.3501V111.45H102.9V102.9Z" fill="black"/>
<path d="M111.45 102.9H102.9V111.45H111.45V102.9Z" fill="black"/>
<path d="M171.3 102.9H162.75V111.45H171.3V102.9Z" fill="black"/>
<path d="M205.5 102.9H196.95V111.45H205.5V102.9Z" fill="black"/>
<path d="M214.05 102.9H205.5V111.45H214.05V102.9Z" fill="black"/>
<path d="M222.6 102.9H214.05V111.45H222.6V102.9Z" fill="black"/>
<path d="M231.15 102.9H222.6V111.45H231.15V102.9Z" fill="black"/>
<path d="M248.25 102.9H239.7V111.45H248.25V102.9Z" fill="black"/>
<path d="M265.35 102.9H256.8V111.45H265.35V102.9Z" fill="black"/>
<path d="M51.5998 111.45H43.0498V120H51.5998V111.45Z" fill="black"/>
<path d="M77.2502 111.45H68.7002V120H77.2502V111.45Z" fill="black"/>
<path d="M85.8 111.45H77.25V120H85.8V111.45Z" fill="black"/>
<path d="M102.9 111.45H94.3501V120H102.9V111.45Z" fill="black"/>
<path d="M154.2 111.45H145.65V120H154.2V111.45Z" fill="black"/>
<path d="M162.75 111.45H154.2V120H162.75V111.45Z" fill="black"/>
<path d="M196.95 111.45H188.4V120H196.95V111.45Z" fill="black"/>
<path d="M205.5 111.45H196.95V120H205.5V111.45Z" fill="black"/>
<path d="M214.05 111.45H205.5V120H214.05V111.45Z" fill="black"/>
<path d="M231.15 111.45H222.6V120H231.15V111.45Z" fill="black"/>
<path d="M239.7 111.45H231.15V120H239.7V111.45Z" fill="black"/>
<path d="M248.25 111.45H239.7V120H248.25V111.45Z" fill="black"/>
<path d="M265.35 111.45H256.8V120H265.35V111.45Z" fill="black"/>
<path d="M43.05 120H34.5V128.55H43.05V120Z" fill="black"/>
<path d="M60.1501 120H51.6001V128.55H60.1501V120Z" fill="black"/>
<path d="M77.2502 120H68.7002V128.55H77.2502V120Z" fill="black"/>
<path d="M102.9 120H94.3501V128.55H102.9V120Z" fill="black"/>
<path d="M128.55 120H120V128.55H128.55V120Z" fill="black"/>
<path d="M137.1 120H128.55V128.55H137.1V120Z" fill="black"/>
<path d="M145.65 120H137.1V128.55H145.65V120Z" fill="black"/>
<path d="M154.2 120H145.65V128.55H154.2V120Z" fill="black"/>
<path d="M162.75 120H154.2V128.55H162.75V120Z" fill="black"/>
<path d="M179.85 120H171.3V128.55H179.85V120Z" fill="black"/>
<path d="M205.5 120H196.95V128.55H205.5V120Z" fill="black"/>
<path d="M231.15 120H222.6V128.55H231.15V120Z" fill="black"/>
<path d="M265.35 120H256.8V128.55H265.35V120Z" fill="black"/>
<path d="M68.6999 128.55H60.1499V137.1H68.6999V128.55Z" fill="black"/>
<path d="M85.8 128.55H77.25V137.1H85.8V128.55Z" fill="black"/>
<path d="M94.3498 128.55H85.7998V137.1H94.3498V128.55Z" fill="black"/>
<path d="M102.9 128.55H94.3501V137.1H102.9V128.55Z" fill="black"/>
<path d="M111.45 128.55H102.9V137.1H111.45V128.55Z" fill="black"/>
<path d="M128.55 128.55H120V137.1H128.55V128.55Z" fill="black"/>
<path d="M162.75 128.55H154.2V137.1H162.75V128.55Z" fill="black"/>
<path d="M171.3 128.55H162.75V137.1H171.3V128.55Z" fill="black"/>
<path d="M205.5 128.55H196.95V137.1H205.5V128.55Z" fill="black"/>
<path d="M231.15 128.55H222.6V137.1H231.15V128.55Z" fill="black"/>
<path d="M239.7 128.55H231.15V137.1H239.7V128.55Z" fill="black"/>
<path d="M34.5002 137.1H25.9502V145.65H34.5002V137.1Z" fill="black"/>
<path d="M43.05 137.1H34.5V145.65H43.05V137.1Z" fill="black"/>
<path d="M68.6999 137.1H60.1499V145.65H68.6999V137.1Z" fill="black"/>
<path d="M102.9 137.1H94.3501V145.65H102.9V137.1Z" fill="black"/>
<path d="M120 137.1H111.45V145.65H120V137.1Z" fill="black"/>
<path d="M128.55 137.1H120V145.65H128.55V137.1Z" fill="black"/>
<path d="M145.65 137.1H137.1V145.65H145.65V137.1Z" fill="black"/>
<path d="M171.3 137.1H162.75V145.65H171.3V137.1Z" fill="black"/>
<path d="M179.85 137.1H171.3V145.65H179.85V137.1Z" fill="black"/>
<path d="M188.4 137.1H179.85V145.65H188.4V137.1Z" fill="black"/>
<path d="M196.95 137.1H188.4V145.65H196.95V137.1Z" fill="black"/>
<path d="M231.15 137.1H222.6V145.65H231.15V137.1Z" fill="black"/>
<path d="M248.25 137.1H239.7V145.65H248.25V137.1Z" fill="black"/>
<path d="M256.8 137.1H248.25V145.65H256.8V137.1Z" fill="black"/>
<path d="M51.5998 145.65H43.0498V154.2H51.5998V145.65Z" fill="black"/>
<path d="M60.1501 145.65H51.6001V154.2H60.1501V145.65Z" fill="black"/>
<path d="M77.2502 145.65H68.7002V154.2H77.2502V145.65Z" fill="black"/>
<path d="M85.8 145.65H77.25V154.2H85.8V145.65Z" fill="black"/>
<path d="M111.45 145.65H102.9V154.2H111.45V145.65Z" fill="black"/>
<path d="M120 145.65H111.45V154.2H120V145.65Z" fill="black"/>
<path d="M137.1 145.65H128.55V154.2H137.1V145.65Z" fill="black"/>
<path d="M154.2 145.65H145.65V154.2H154.2V145.65Z" fill="black"/>
<path d="M171.3 145.65H162.75V154.2H171.3V145.65Z" fill="black"/>
<path d="M179.85 145.65H171.3V154.2H179.85V145.65Z" fill="black"/>
<path d="M214.05 145.65H205.5V154.2H214.05V145.65Z" fill="black"/>
<path d="M222.6 145.65H214.05V154.2H222.6V145.65Z" fill="black"/>
<path d="M239.7 145.65H231.15V154.2H239.7V145.65Z" fill="black"/>
<path d="M256.8 145.65H248.25V154.2H256.8V145.65Z" fill="black"/>
<path d="M34.5002 154.2H25.9502V162.75H34.5002V154.2Z" fill="black"/>
<path d="M51.5998 154.2H43.0498V162.75H51.5998V154.2Z" fill="black"/>
<path d="M60.1501 154.2H51.6001V162.75H60.1501V154.2Z" fill="black"/>
<path d="M94.3498 154.2H85.7998V162.75H94.3498V154.2Z" fill="black"/>
<path d="M102.9 154.2H94.3501V162.75H102.9V154.2Z" fill="black"/>
<path d="M111.45 154.2H102.9V162.75H111.45V154.2Z" fill="black"/>
<path d="M137.1 154.2H128.55V162.75H137.1V154.2Z" fill="black"/>
<path d="M145.65 154.2H137.1V162.75H145.65V154.2Z" fill="black"/>
<path d="M171.3 154.2H162.75V162.75H171.3V154.2Z" fill="black"/>
<path d="M179.85 154.2H171.3V162.75H179.85V154.2Z" fill="black"/>
<path d="M188.4 154.2H179.85V162.75H188.4V154.2Z" fill="black"/>
<path d="M196.95 154.2H188.4V162.75H196.95V154.2Z" fill="black"/>
<path d="M214.05 154.2H205.5V162.75H214.05V154.2Z" fill="black"/>
<path d="M222.6 154.2H214.05V162.75H222.6V154.2Z" fill="black"/>
<path d="M231.15 154.2H222.6V162.75H231.15V154.2Z" fill="black"/>
<path d="M239.7 154.2H231.15V162.75H239.7V154.2Z" fill="black"/>
<path d="M265.35 154.2H256.8V162.75H265.35V154.2Z" fill="black"/>
<path d="M273.9 154.2H265.35V162.75H273.9V154.2Z" fill="black"/>
<path d="M34.5002 162.75H25.9502V171.3H34.5002V162.75Z" fill="black"/>
<path d="M60.1501 162.75H51.6001V171.3H60.1501V162.75Z" fill="black"/>
<path d="M68.6999 162.75H60.1499V171.3H68.6999V162.75Z" fill="black"/>
<path d="M77.2502 162.75H68.7002V171.3H77.2502V162.75Z" fill="black"/>
<path d="M85.8 162.75H77.25V171.3H85.8V162.75Z" fill="black"/>
<path d="M94.3498 162.75H85.7998V171.3H94.3498V162.75Z" fill="black"/>
<path d="M102.9 162.75H94.3501V171.3H102.9V162.75Z" fill="black"/>
<path d="M111.45 162.75H102.9V171.3H111.45V162.75Z" fill="black"/>
<path d="M128.55 162.75H120V171.3H128.55V162.75Z" fill="black"/>
<path d="M188.4 162.75H179.85V171.3H188.4V162.75Z" fill="black"/>
<path d="M214.05 162.75H205.5V171.3H214.05V162.75Z" fill="black"/>
<path d="M256.8 162.75H248.25V171.3H256.8V162.75Z" fill="black"/>
<path d="M265.35 162.75H256.8V171.3H265.35V162.75Z" fill="black"/>
<path d="M51.5998 171.3H43.0498V179.85H51.5998V171.3Z" fill="black"/>
<path d="M102.9 171.3H94.3501V179.85H102.9V171.3Z" fill="black"/>
<path d="M137.1 171.3H128.55V179.85H137.1V171.3Z" fill="black"/>
<path d="M145.65 171.3H137.1V179.85H145.65V171.3Z" fill="black"/>
<path d="M171.3 171.3H162.75V179.85H171.3V171.3Z" fill="black"/>
<path d="M188.4 171.3H179.85V179.85H188.4V171.3Z" fill="black"/>
<path d="M196.95 171.3H188.4V179.85H196.95V171.3Z" fill="black"/>
<path d="M205.5 171.3H196.95V179.85H205.5V171.3Z" fill="black"/>
<path d="M214.05 171.3H205.5V179.85H214.05V171.3Z" fill="black"/>
<path d="M222.6 171.3H214.05V179.85H222.6V171.3Z" fill="black"/>
<path d="M239.7 171.3H231.15V179.85H239.7V171.3Z" fill="black"/>
<path d="M265.35 171.3H256.8V179.85H265.35V171.3Z" fill="black"/>
<path d="M34.5002 179.85H25.9502V188.4H34.5002V179.85Z" fill="black"/>
<path d="M60.1501 179.85H51.6001V188.4H60.1501V179.85Z" fill="black"/>
<path d="M77.2502 179.85H68.7002V188.4H77.2502V179.85Z" fill="black"/>
<path d="M85.8 179.85H77.25V188.4H85.8V179.85Z" fill="black"/>
<path d="M111.45 179.85H102.9V188.4H111.45V179.85Z" fill="black"/>
<path d="M128.55 179.85H120V188.4H128.55V179.85Z" fill="black"/>
<path d="M137.1 179.85H128.55V188.4H137.1V179.85Z" fill="black"/>
<path d="M171.3 179.85H162.75V188.4H171.3V179.85Z" fill="black"/>
<path d="M205.5 179.85H196.95V188.4H205.5V179.85Z" fill="black"/>
<path d="M231.15 179.85H222.6V188.4H231.15V179.85Z" fill="black"/>
<path d="M248.25 179.85H239.7V188.4H248.25V179.85Z" fill="black"/>
<path d="M256.8 179.85H248.25V188.4H256.8V179.85Z" fill="black"/>
<path d="M265.35 179.85H256.8V188.4H265.35V179.85Z" fill="black"/>
<path d="M51.5998 188.4H43.0498V196.95H51.5998V188.4Z" fill="black"/>
<path d="M102.9 188.4H94.3501V196.95H102.9V188.4Z" fill="black"/>
<path d="M120 188.4H111.45V196.95H120V188.4Z" fill="black"/>
<path d="M137.1 188.4H128.55V196.95H137.1V188.4Z" fill="black"/>
<path d="M162.75 188.4H154.2V196.95H162.75V188.4Z" fill="black"/>
<path d="M179.85 188.4H171.3V196.95H179.85V188.4Z" fill="black"/>
<path d="M196.95 188.4H188.4V196.95H196.95V188.4Z" fill="black"/>
<path d="M214.05 188.4H205.5V196.95H214.05V188.4Z" fill="black"/>
<path d="M222.6 188.4H214.05V196.95H222.6V188.4Z" fill="black"/>
<path d="M256.8 188.4H248.25V196.95H256.8V188.4Z" fill="black"/>
<path d="M273.9 188.4H265.35V196.95H273.9V188.4Z" fill="black"/>
<path d="M43.05 196.95H34.5V205.5H43.05V196.95Z" fill="black"/>
<path d="M68.6999 196.95H60.1499V205.5H68.6999V196.95Z" fill="black"/>
<path d="M77.2502 196.95H68.7002V205.5H77.2502V196.95Z" fill="black"/>
<path d="M85.8 196.95H77.25V205.5H85.8V196.95Z" fill="black"/>
<path d="M94.3498 196.95H85.7998V205.5H94.3498V196.95Z" fill="black"/>
<path d="M102.9 196.95H94.3501V205.5H102.9V196.95Z" fill="black"/>
<path d="M120 196.95H111.45V205.5H120V196.95Z" fill="black"/>
<path d="M128.55 196.95H120V205.5H128.55V196.95Z" fill="black"/>
<path d="M137.1 196.95H128.55V205.5H137.1V196.95Z" fill="black"/>
<path d="M145.65 196.95H137.1V205.5H145.65V196.95Z" fill="black"/>
<path d="M179.85 196.95H171.3V205.5H179.85V196.95Z" fill="black"/>
<path d="M196.95 196.95H188.4V205.5H196.95V196.95Z" fill="black"/>
<path d="M205.5 196.95H196.95V205.5H205.5V196.95Z" fill="black"/>
<path d="M214.05 196.95H205.5V205.5H214.05V196.95Z" fill="black"/>
<path d="M222.6 196.95H214.05V205.5H222.6V196.95Z" fill="black"/>
<path d="M231.15 196.95H222.6V205.5H231.15V196.95Z" fill="black"/>
<path d="M239.7 196.95H231.15V205.5H239.7V196.95Z" fill="black"/>
<path d="M256.8 196.95H248.25V205.5H256.8V196.95Z" fill="black"/>
<path d="M273.9 196.95H265.35V205.5H273.9V196.95Z" fill="black"/>
<path d="M102.9 205.5H94.3501V214.05H102.9V205.5Z" fill="black"/>
<path d="M137.1 205.5H128.55V214.05H137.1V205.5Z" fill="black"/>
<path d="M145.65 205.5H137.1V214.05H145.65V205.5Z" fill="black"/>
<path d="M154.2 205.5H145.65V214.05H154.2V205.5Z" fill="black"/>
<path d="M162.75 205.5H154.2V214.05H162.75V205.5Z" fill="black"/>
<path d="M171.3 205.5H162.75V214.05H171.3V205.5Z" fill="black"/>
<path d="M205.5 205.5H196.95V214.05H205.5V205.5Z" fill="black"/>
<path d="M239.7 205.5H231.15V214.05H239.7V205.5Z" fill="black"/>
<path d="M265.35 205.5H256.8V214.05H265.35V205.5Z" fill="black"/>
<path d="M111.45 214.05H102.9V222.6H111.45V214.05Z" fill="black"/>
<path d="M128.55 214.05H120V222.6H128.55V214.05Z" fill="black"/>
<path d="M137.1 214.05H128.55V222.6H137.1V214.05Z" fill="black"/>
<path d="M145.65 214.05H137.1V222.6H145.65V214.05Z" fill="black"/>
<path d="M162.75 214.05H154.2V222.6H162.75V214.05Z" fill="black"/>
<path d="M179.85 214.05H171.3V222.6H179.85V214.05Z" fill="black"/>
<path d="M188.4 214.05H179.85V222.6H188.4V214.05Z" fill="black"/>
<path d="M196.95 214.05H188.4V222.6H196.95V214.05Z" fill="black"/>
<path d="M205.5 214.05H196.95V222.6H205.5V214.05Z" fill="black"/>
<path d="M222.6 214.05H214.05V222.6H222.6V214.05Z" fill="black"/>
<path d="M239.7 214.05H231.15V222.6H239.7V214.05Z" fill="black"/>
<path d="M248.25 214.05H239.7V222.6H248.25V214.05Z" fill="black"/>
<path d="M265.35 214.05H256.8V222.6H265.35V214.05Z" fill="black"/>
<path d="M162.75 222.6H154.2V231.15H162.75V222.6Z" fill="black"/>
<path d="M196.95 222.6H188.4V231.15H196.95V222.6Z" fill="black"/>
<path d="M205.5 222.6H196.95V231.15H205.5V222.6Z" fill="black"/>
<path d="M239.7 222.6H231.15V231.15H239.7V222.6Z" fill="black"/>
<path d="M248.25 222.6H239.7V231.15H248.25V222.6Z" fill="black"/>
<path d="M256.8 222.6H248.25V231.15H256.8V222.6Z" fill="black"/>
<path d="M137.1 231.15H128.55V239.7H137.1V231.15Z" fill="black"/>
<path d="M154.2 231.15H145.65V239.7H154.2V231.15Z" fill="black"/>
<path d="M162.75 231.15H154.2V239.7H162.75V231.15Z" fill="black"/>
<path d="M179.85 231.15H171.3V239.7H179.85V231.15Z" fill="black"/>
<path d="M188.4 231.15H179.85V239.7H188.4V231.15Z" fill="black"/>
<path d="M205.5 231.15H196.95V239.7H205.5V231.15Z" fill="black"/>
<path d="M214.05 231.15H205.5V239.7H214.05V231.15Z" fill="black"/>
<path d="M222.6 231.15H214.05V239.7H222.6V231.15Z" fill="black"/>
<path d="M231.15 231.15H222.6V239.7H231.15V231.15Z" fill="black"/>
<path d="M239.7 231.15H231.15V239.7H239.7V231.15Z" fill="black"/>
<path d="M256.8 231.15H248.25V239.7H256.8V231.15Z" fill="black"/>
<path d="M265.35 231.15H256.8V239.7H265.35V231.15Z" fill="black"/>
<path d="M273.9 231.15H265.35V239.7H273.9V231.15Z" fill="black"/>
<path d="M102.9 239.7H94.3501V248.25H102.9V239.7Z" fill="black"/>
<path d="M120 239.7H111.45V248.25H120V239.7Z" fill="black"/>
<path d="M128.55 239.7H120V248.25H128.55V239.7Z" fill="black"/>
<path d="M137.1 239.7H128.55V248.25H137.1V239.7Z" fill="black"/>
<path d="M154.2 239.7H145.65V248.25H154.2V239.7Z" fill="black"/>
<path d="M179.85 239.7H171.3V248.25H179.85V239.7Z" fill="black"/>
<path d="M188.4 239.7H179.85V248.25H188.4V239.7Z" fill="black"/>
<path d="M196.95 239.7H188.4V248.25H196.95V239.7Z" fill="black"/>
<path d="M222.6 239.7H214.05V248.25H222.6V239.7Z" fill="black"/>
<path d="M239.7 239.7H231.15V248.25H239.7V239.7Z" fill="black"/>
<path d="M256.8 239.7H248.25V248.25H256.8V239.7Z" fill="black"/>
<path d="M265.35 239.7H256.8V248.25H265.35V239.7Z" fill="black"/>
<path d="M102.9 248.25H94.3501V256.8H102.9V248.25Z" fill="black"/>
<path d="M128.55 248.25H120V256.8H128.55V248.25Z" fill="black"/>
<path d="M145.65 248.25H137.1V256.8H145.65V248.25Z" fill="black"/>
<path d="M162.75 248.25H154.2V256.8H162.75V248.25Z" fill="black"/>
<path d="M171.3 248.25H162.75V256.8H171.3V248.25Z" fill="black"/>
<path d="M188.4 248.25H179.85V256.8H188.4V248.25Z" fill="black"/>
<path d="M222.6 248.25H214.05V256.8H222.6V248.25Z" fill="black"/>
<path d="M231.15 248.25H222.6V256.8H231.15V248.25Z" fill="black"/>
<path d="M239.7 248.25H231.15V256.8H239.7V248.25Z" fill="black"/>
<path d="M248.25 248.25H239.7V256.8H248.25V248.25Z" fill="black"/>
<path d="M256.8 248.25H248.25V256.8H256.8V248.25Z" fill="black"/>
<path d="M273.9 248.25H265.35V256.8H273.9V248.25Z" fill="black"/>
<path d="M102.9 256.8H94.3501V265.35H102.9V256.8Z" fill="black"/>
<path d="M111.45 256.8H102.9V265.35H111.45V256.8Z" fill="black"/>
<path d="M120 256.8H111.45V265.35H120V256.8Z" fill="black"/>
<path d="M128.55 256.8H120V265.35H128.55V256.8Z" fill="black"/>
<path d="M154.2 256.8H145.65V265.35H154.2V256.8Z" fill="black"/>
<path d="M162.75 256.8H154.2V265.35H162.75V256.8Z" fill="black"/>
<path d="M171.3 256.8H162.75V265.35H171.3V256.8Z" fill="black"/>
<path d="M205.5 256.8H196.95V265.35H205.5V256.8Z" fill="black"/>
<path d="M214.05 256.8H205.5V265.35H214.05V256.8Z" fill="black"/>
<path d="M248.25 256.8H239.7V265.35H248.25V256.8Z" fill="black"/>
<path d="M256.8 256.8H248.25V265.35H256.8V256.8Z" fill="black"/>
<path d="M273.9 256.8H265.35V265.35H273.9V256.8Z" fill="black"/>
<path d="M102.9 265.35H94.3501V273.9H102.9V265.35Z" fill="black"/>
<path d="M137.1 265.35H128.55V273.9H137.1V265.35Z" fill="black"/>
<path d="M154.2 265.35H145.65V273.9H154.2V265.35Z" fill="black"/>
<path d="M171.3 265.35H162.75V273.9H171.3V265.35Z" fill="black"/>
<path d="M179.85 265.35H171.3V273.9H179.85V265.35Z" fill="black"/>
<path d="M188.4 265.35H179.85V273.9H188.4V265.35Z" fill="black"/>
<path d="M196.95 265.35H188.4V273.9H196.95V265.35Z" fill="black"/>
<path d="M222.6 265.35H214.05V273.9H222.6V265.35Z" fill="black"/>
<path d="M231.15 265.35H222.6V273.9H231.15V265.35Z" fill="black"/>
<path d="M248.25 265.35H239.7V273.9H248.25V265.35Z" fill="black"/>
<path d="M265.35 265.35H256.8V273.9H265.35V265.35Z" fill="black"/>
<g clip-path="url(#clip2_279_11449)">
<path d="M77.3357 25.9501H68.7855H60.2356H60.2355H51.6857H43.1357H34.5857H26.0356V34.5001V43.05V51.6V60.1501V68.7V77.2499V85.7999H34.5857H43.1357H51.6857H60.2355H60.2356H68.7855H77.3357H85.8856V77.2499V68.7V60.1501V51.6V43.05V34.5001V25.9501H77.3357ZM77.3357 43.05V51.6V60.1501V68.7V77.2499H68.7855H60.2356H60.2355H51.6857H43.1357H34.5857V68.7V60.1501V51.6V43.05V34.5001H43.1357H51.6857H60.2355H60.2356H68.7855H77.3357V43.05Z" fill="black"/>
</g>
<path d="M60.1502 43.05H60.1501H51.6003H43.0503V51.5999V60.1501V68.7H51.6003H60.1501H60.1502H68.7V60.1501V51.5999V43.05H60.1502Z" fill="black"/>
<g clip-path="url(#clip3_279_11449)">
<path d="M265.435 25.9501H256.885H248.335H248.335H239.785H231.235H222.685H214.135V34.5001V43.05V51.6V60.1501V68.7V77.2499V85.7999H222.685H231.235H239.785H248.335H248.335H256.885H265.435H273.985V77.2499V68.7V60.1501V51.6V43.05V34.5001V25.9501H265.435ZM265.435 43.05V51.6V60.1501V68.7V77.2499H256.885H248.335H248.335H239.785H231.235H222.685V68.7V60.1501V51.6V43.05V34.5001H231.235H239.785H248.335H248.335H256.885H265.435V43.05Z" fill="black"/>
</g>
<path d="M248.25 43.05H248.25H239.7H231.15V51.5999V60.1501V68.7H239.7H248.25H248.25H256.8V60.1501V51.5999V43.05H248.25Z" fill="black"/>
<g clip-path="url(#clip4_279_11449)">
<path d="M77.3357 214.05H68.7855H60.2356H60.2355H51.6857H43.1357H34.5857H26.0356V222.6V231.15V239.7V248.25V256.8V265.35V273.9H34.5857H43.1357H51.6857H60.2355H60.2356H68.7855H77.3357H85.8856V265.35V256.8V248.25V239.7V231.15V222.6V214.05H77.3357ZM77.3357 231.15V239.7V248.25V256.8V265.35H68.7855H60.2356H60.2355H51.6857H43.1357H34.5857V256.8V248.25V239.7V231.15V222.6H43.1357H51.6857H60.2355H60.2356H68.7855H77.3357V231.15Z" fill="black"/>
</g>
<path d="M60.1502 231.15H60.1501H51.6003H43.0503V239.7V248.25V256.8H51.6003H60.1501H60.1502H68.7V248.25V239.7V231.15H60.1502Z" fill="black"/>
</g>
</g>
<defs>
<clipPath id="clip0_279_11449">
<rect width="300" height="300" fill="white"/>
</clipPath>
<clipPath id="clip1_279_11449">
<rect width="300" height="300" fill="white"/>
</clipPath>
<clipPath id="clip2_279_11449">
<rect width="59.85" height="59.85" fill="white" transform="translate(25.9502 25.95)"/>
</clipPath>
<clipPath id="clip3_279_11449">
<rect width="59.85" height="59.85" fill="white" transform="translate(214.05 25.95)"/>
</clipPath>
<clipPath id="clip4_279_11449">
<rect width="59.85" height="59.85" fill="white" transform="translate(25.9502 214.05)"/>
</clipPath>
</defs>
</svg>
